# xmcd
#
# Track frame offsets:
#	180
#	13328
#	26974
#	41773
#	56084
#	71643
#	86676
#	100335
#	112323
#	119132
#	131709
#	146725
#	158231
#	171832
#
# Disc length: 2491 seconds
#
# Revision: 0
# Processed by: cddbd v1.5.2PL0 Copyright (c) Steve Scherf et al.
# Submitted via: EasyCDDAExtractor 4.6.9.1
#
DISCID=de09b90e
DTITLE=KBS 가요무대 - CD7
DYEAR=2001
DGENRE=Oldies
TTITLE0=물새 한마리
TTITLE1=앉으나 서나 당신 생각
TTITLE2=그리움은 가슴마다
TTITLE3=물레방아 도는데
TTITLE4=동숙의 노래
TTITLE5=덕수궁 돌담길
TTITLE6=바다가 육지라면
TTITLE7=강원도 아리랑
TTITLE8=산유화
TTITLE9=오동도 타령
TTITLE10=울어라 열풍아
TTITLE11=과거를 묻지마세요
TTITLE12=달타령
TTITLE13=카츄샤의 노래
EXTD=
EXTT0=
EXTT1=
EXTT2=
EXTT3=
EXTT4=
EXTT5=
EXTT6=
EXTT7=
EXTT8=
EXTT9=
EXTT10=
EXTT11=
EXTT12=
EXTT13=
PLAYORDER=
